HIERARCHY
ROOT Hips
{
	OFFSET -6.501393 103.544830 -3.308209
	CHANNELS 6 Xposition Yposition Zposition Zrotation Yrotation Xrotation 
	JOINT Chest
	{
		OFFSET 3.490766 13.188873 -0.149589
		CHANNELS 6 Xposition Yposition Zposition Zrotation Yrotation Xrotation 
		JOINT Chest2
		{
			OFFSET 2.498665 20.695694 4.950911
			CHANNELS 6 Xposition Yposition Zposition Zrotation Yrotation Xrotation 
			JOINT Chest3
			{
				OFFSET 2.586676 14.483231 2.522879
				CHANNELS 6 Xposition Yposition Zposition Zrotation Yrotation Xrotation 
				JOINT Neck
				{
					OFFSET 3.658716 16.642105 2.875753
					CHANNELS 6 Xposition Yposition Zposition Zrotation Yrotation Xrotation 
					JOINT Head
					{
						OFFSET 0.562498 9.917938 3.338517
						CHANNELS 6 Xposition Yposition Zposition Zrotation Yrotation Xrotation 
						End Site #name: Head_end_site
						{
							OFFSET 0.623727 9.927261 3.299727
						}
					}
				}
				JOINT LeftCollar
				{
					OFFSET 3.158933 11.826752 7.207877
					CHANNELS 6 Xposition Yposition Zposition Zrotation Yrotation Xrotation 
					JOINT LeftUpArm
					{
						OFFSET 9.662516 -4.699112 13.894368
						CHANNELS 6 Xposition Yposition Zposition Zrotation Yrotation Xrotation 
						JOINT LeftLowArm
						{
							OFFSET -26.061760 -12.379883 17.528591
							CHANNELS 6 Xposition Yposition Zposition Zrotation Yrotation Xrotation 
							JOINT LeftHand
							{
								OFFSET -23.105013 -13.493835 13.602276
								CHANNELS 6 Xposition Yposition Zposition Zrotation Yrotation Xrotation 
								End Site #name: LeftHand_end_site
								{
									OFFSET -5.049747 -2.949127 2.972858
								}
							}
						}
					}
				}
				JOINT RightCollar
				{
					OFFSET -1.958067 14.041336 0.903037
					CHANNELS 6 Xposition Yposition Zposition Zrotation Yrotation Xrotation 
					JOINT RightUpArm
					{
						OFFSET -7.902977 5.073425 -14.842493
						CHANNELS 6 Xposition Yposition Zposition Zrotation Yrotation Xrotation 
						JOINT RightLowArm
						{
							OFFSET -31.237156 3.028915 12.441875
							CHANNELS 6 Xposition Yposition Zposition Zrotation Yrotation Xrotation 
							JOINT RightHand
							{
								OFFSET 1.770481 -9.929611 28.270538
								CHANNELS 6 Xposition Yposition Zposition Zrotation Yrotation Xrotation 
								End Site #name: RightHand_end_site
								{
									OFFSET 0.386944 -2.170212 6.178812
								}
							}
						}
					}
				}
			}
		}
	}
	JOINT LeftUpLeg
	{
		OFFSET 6.008414 -1.501137 7.878114
		CHANNELS 6 Xposition Yposition Zposition Zrotation Yrotation Xrotation 
		JOINT LeftLowLeg
		{
			OFFSET -32.490929 -13.194344 31.847103
			CHANNELS 6 Xposition Yposition Zposition Zrotation Yrotation Xrotation 
			JOINT LeftFoot
			{
				OFFSET -27.394722 -30.609779 17.695694
				CHANNELS 6 Xposition Yposition Zposition Zrotation Yrotation Xrotation 
				JOINT LeftToe
				{
					OFFSET -14.301807 2.204399 18.712517
					CHANNELS 6 Xposition Yposition Zposition Zrotation Yrotation Xrotation 
					End Site #name: LeftToe_end_site
					{
						OFFSET -6.634720 15.950195 16.159538
					}
				}
			}
		}
	}
	JOINT RightUpLeg
	{
		OFFSET -6.008467 1.500946 -7.878115
		CHANNELS 6 Xposition Yposition Zposition Zrotation Yrotation Xrotation 
		JOINT RightLowLeg
		{
			OFFSET -7.669543 -46.691193 2.263450
			CHANNELS 6 Xposition Yposition Zposition Zrotation Yrotation Xrotation 
			JOINT RightFoot
			{
				OFFSET 16.419405 -39.122486 -14.156796
				CHANNELS 6 Xposition Yposition Zposition Zrotation Yrotation Xrotation 
				JOINT RightToe
				{
					OFFSET -13.268997 -16.468420 10.596312
					CHANNELS 6 Xposition Yposition Zposition Zrotation Yrotation Xrotation 
					End Site #name: RightToe_end_site
					{
						OFFSET -19.207935 -1.991539 13.661808
					}
				}
			}
		}
	}
}
MOTION
Frames: 4
Frame Time: 0.033333
-35.336685 103.326256 0.706528 15.643549 42.181090 17.034975 3.555103 13.020681 -0.230467 -6.659356 1.747568 -15.000794 2.479066 20.523424 4.971298 -4.970649 7.235456 -0.636831 2.636723 14.390549 2.542738 2.914015 0.784767 7.782529 3.596568 16.504410 2.792610 -1.954385 -0.902129 -7.221641 0.574719 9.837837 3.256195 -0.490657 1.464855 4.552296 3.170512 11.717865 7.120273 -1.246862 15.659419 6.731986 9.595716 -4.565882 13.833632 6.921351 23.260628 -10.680112 -25.888268 -12.384776 17.407534 -35.707976 -10.403250 -26.992122 -22.992796 -13.486505 13.429660 -0.176927 2.618519 2.664822 -1.898092 13.943867 0.953459 8.562209 2.810019 -7.231475 -7.828620 5.054400 -14.671226 19.443850 -8.632563 -2.003432 -30.868742 2.971355 12.424779 -15.515529 9.968480 -23.148006 1.705926 -9.899190 28.021076 -7.267871 -1.054387 -0.076602 5.935480 -1.515836 7.814272 27.187886 -2.147646 28.369414 -32.169910 -12.984789 31.652512 5.621962 5.263975 3.708595 -27.203028 -30.407957 17.481873 1.697470 2.840101 -4.993073 -14.169046 2.162691 18.526274 3.611049 4.868125 -1.716958 -5.871850 1.510615 -7.964752 -21.286314 -4.821673 -0.027413 -7.587345 -46.257412 2.270674 0.362346 6.340430 -8.507719 16.331018 -38.743080 -14.010242 13.897155 -14.736837 8.946411 -13.069897 -16.387089 10.511300 -1.880532 2.356839 -2.772182 
-34.113026 103.519447 0.617984 15.269581 41.037102 16.568243 3.552699 13.026613 -0.224055 -6.886107 1.717379 -15.234582 2.480006 20.525547 4.970088 -4.792930 6.673401 -0.602199 2.641438 14.390573 2.552130 3.355440 0.835918 7.487402 3.595989 16.502192 2.797419 -1.670927 -0.692686 -7.060032 0.572859 9.840937 3.253473 -0.643919 1.624329 4.532438 3.164570 11.714204 7.129078 -1.219977 15.536701 6.505579 9.593843 -4.568935 13.836040 7.503035 22.762377 -10.431056 -25.889378 -12.374061 17.401052 -35.460754 -10.698914 -26.568609 -22.998024 -13.487949 13.421350 -0.170706 2.345350 2.809837 -1.908023 13.942039 0.953790 8.499816 2.494746 -7.448388 -7.828846 5.053322 -14.672989 18.715454 -8.754162 -1.537583 -30.868656 2.977216 12.419848 -15.045539 9.947508 -22.521695 1.702713 -9.893510 28.025915 -7.150468 -0.975852 -0.091409 5.938632 -1.516196 7.818222 27.316203 -2.166417 28.620007 -32.171917 -12.987059 31.654863 4.982261 5.009951 3.084741 -27.204489 -30.408054 17.485310 1.704783 2.476740 -4.989057 -14.168715 2.160971 18.532240 3.348350 5.119760 -1.893021 -5.873767 1.511159 -7.970273 -20.802905 -4.373330 -0.592283 -7.587069 -46.254318 2.272191 0.845507 5.996132 -8.641488 16.331497 -38.747925 -14.008609 13.493355 -14.810842 9.269018 -13.071999 -16.390553 10.509851 -1.814636 2.560716 -2.364614 
-32.419575 103.920502 0.580541 14.507552 38.548133 15.750587 3.556184 13.032617 -0.214665 -7.495723 1.654940 -15.636559 2.487322 20.526760 4.961518 -4.566523 6.139962 -0.193119 2.641885 14.393165 2.555117 3.133486 0.838524 7.102008 3.593884 16.495279 2.802301 -1.430522 -0.297642 -6.596582 0.569456 9.839616 3.248297 -0.619265 1.788940 4.287289 3.165794 11.716198 7.132372 -1.162803 15.648935 6.028979 9.600310 -4.577339 13.836004 8.103253 21.965849 -9.711951 -25.896120 -12.367613 17.403574 -35.131682 -11.251757 -26.409907 -22.996836 -13.493226 13.431000 -0.629451 2.524736 2.799523 -1.909015 13.944189 0.950608 8.413689 1.985561 -7.232264 -7.831280 5.050780 -14.673510 18.224142 -9.113111 -1.503970 -30.866257 2.980940 12.419295 -14.462555 10.353193 -21.619359 1.696994 -9.889878 28.027750 -7.323063 -0.605843 -0.125117 5.945592 -1.515398 7.816465 27.991647 -2.667595 29.062411 -32.170685 -12.992971 31.660904 3.715319 4.510020 1.763375 -27.204538 -30.413944 17.483866 2.241226 1.195010 -4.342985 -14.167251 2.164637 18.538357 3.420063 5.506713 -1.780943 -5.869058 1.506520 -7.973698 -20.018076 -4.219797 -1.191497 -7.593689 -46.258728 2.266802 0.453877 5.884780 -9.081989 16.322702 -38.749023 -14.004444 13.248800 -15.270879 9.398543 -13.074473 -16.395971 10.510039 -1.372833 2.507102 -2.075477 
-30.378212 104.496094 0.595258 14.587491 36.018060 15.836840 3.560199 13.041854 -0.203476 -8.190055 2.045327 -15.888092 2.491295 20.530308 4.954463 -4.274098 5.592968 -0.184318 2.648783 14.390546 2.558809 2.808451 0.667677 6.749467 3.595313 16.491119 2.805618 -1.269225 0.008441 -6.248989 0.573173 9.843140 3.249226 -0.659683 1.622707 4.104769 3.161434 11.714109 7.138310 -1.328120 15.509932 6.061190 9.606727 -4.580704 13.837328 9.176851 21.370069 -8.685760 -25.906754 -12.357651 17.402834 -34.987258 -11.896329 -26.313288 -22.994267 -13.504329 13.427889 -0.937683 2.506397 2.675079 -1.912298 13.945135 0.952950 7.826656 1.439676 -7.443630 -7.829385 5.048941 -14.675316 17.529783 -9.456738 -1.363577 -30.871912 2.988258 12.414182 -13.506771 10.984064 -20.075217 1.694842 -9.891485 28.025801 -7.271717 -0.672731 -0.189660 5.949682 -1.520220 7.812832 28.711714 -3.397958 29.388525 -32.170559 -12.998716 31.659361 2.227674 3.989739 0.299914 -27.198633 -30.420063 17.491362 2.723944 0.247500 -3.924663 -14.175229 2.169256 18.544899 3.519508 5.879668 -1.671384 -5.868541 1.508744 -7.974443 -18.961140 -4.114715 -2.047400 -7.599301 -46.264832 2.261463 -0.581829 5.204841 -9.544820 16.320198 -38.749821 -14.006166 13.212778 -15.629935 9.702406 -13.078167 -16.409355 10.506783 -1.282803 2.340525 -1.784661 
